<svg width="190" height="56" viewBox="0 0 190 56" fill="none" xmlns="http://www.w3.org/2000/svg">
<g id="logo">
<g id="logo z aparatem">
<g id="Photo2View" filter="url(#filter0_d)">
<path d="M13.6232 30V9.02357H22.2501C23.4319 9.02357 24.4758 9.34856 25.3818 9.99853C26.3076 10.6288 27.0363 11.4462 27.5681 12.4507C28.0999 13.4355 28.3658 14.4597 28.3658 15.5233C28.3658 16.646 28.1098 17.7096 27.5977 18.7141C27.1053 19.6989 26.4159 20.5064 25.5296 21.1367C24.6432 21.767 23.6092 22.0821 22.4274 22.0821H15.13V30H13.6232ZM15.13 20.6936H22.3683C23.294 20.6936 24.0819 20.4474 24.7319 19.955C25.4015 19.4625 25.9136 18.8224 26.2682 18.0346C26.6424 17.2467 26.8295 16.4096 26.8295 15.5233C26.8295 14.6173 26.6128 13.7704 26.1795 12.9825C25.7659 12.1947 25.2046 11.5644 24.4955 11.0917C23.8061 10.619 23.038 10.3826 22.1911 10.3826H15.13V20.6936ZM44.9725 30H43.4952V21.4322C43.4952 17.6308 42.2248 15.7301 39.684 15.7301C38.8568 15.7301 38.0492 15.9369 37.2614 16.3506C36.4736 16.7642 35.7743 17.3354 35.1638 18.0641C34.5729 18.7732 34.1494 19.5807 33.8934 20.4867V30H32.4161V8.43269H33.8934V18.3005C34.5236 17.099 35.4001 16.1437 36.5228 15.4347C37.6455 14.7256 38.8371 14.3711 40.0976 14.3711C41.8112 14.3711 43.0521 14.9817 43.8202 16.2028C44.5884 17.4043 44.9725 19.0588 44.9725 21.1663V30ZM56.7657 30.2954C55.3279 30.2954 54.0378 29.9311 52.8954 29.2023C51.7727 28.4735 50.8864 27.5084 50.2364 26.307C49.5864 25.1055 49.2614 23.7859 49.2614 22.348C49.2614 21.2647 49.4486 20.2504 49.8228 19.305C50.197 18.3399 50.7288 17.4929 51.4182 16.7642C52.1075 16.0157 52.9052 15.4347 53.8113 15.0211C54.7173 14.5877 55.7021 14.3711 56.7657 14.3711C57.8293 14.3711 58.8141 14.5877 59.7201 15.0211C60.6261 15.4347 61.414 16.0157 62.0837 16.7642C62.773 17.4929 63.3048 18.3399 63.679 19.305C64.073 20.2504 64.2699 21.2647 64.2699 22.348C64.2699 23.7859 63.9351 25.1055 63.2654 26.307C62.6155 27.5084 61.7193 28.4735 60.5769 29.2023C59.4542 29.9311 58.1838 30.2954 56.7657 30.2954ZM50.7387 22.4071C50.7387 23.6086 51.0046 24.7116 51.5364 25.7161C52.0878 26.7009 52.8166 27.4887 53.7226 28.0796C54.6287 28.6705 55.6332 28.966 56.7361 28.966C57.8391 28.966 58.8436 28.6705 59.7497 28.0796C60.6754 27.469 61.4041 26.6615 61.9359 25.657C62.4874 24.6525 62.7632 23.5397 62.7632 22.3185C62.7632 21.117 62.4874 20.014 61.9359 19.0095C61.4041 18.005 60.6754 17.2073 59.7497 16.6164C58.8436 16.0059 57.849 15.7006 56.7657 15.7006C55.6627 15.7006 54.6582 16.0059 53.7522 16.6164C52.8462 17.227 52.1174 18.0444 51.5659 19.0686C51.0144 20.0731 50.7387 21.186 50.7387 22.4071ZM75.3479 29.2614C75.21 29.3402 74.8456 29.5174 74.2547 29.7932C73.6639 30.0492 72.9548 30.1773 72.1276 30.1773C71.32 30.1773 70.6109 29.9409 70.0004 29.4682C69.4095 28.9955 69.114 28.316 69.114 27.4296V15.8483H66.9573V14.637H69.114V9.3781H70.5913V14.637H74.1661V15.8483H70.5913V27.0751C70.6306 27.6463 70.8375 28.0796 71.2117 28.3751C71.5859 28.6508 72.0192 28.7887 72.5116 28.7887C73.1222 28.7887 73.654 28.6902 74.107 28.4932C74.56 28.2766 74.8259 28.1387 74.9047 28.0796L75.3479 29.2614ZM84.9955 30.2954C83.5576 30.2954 82.2675 29.9311 81.1252 29.2023C80.0025 28.4735 79.1162 27.5084 78.4662 26.307C77.8162 25.1055 77.4912 23.7859 77.4912 22.348C77.4912 21.2647 77.6783 20.2504 78.0526 19.305C78.4268 18.3399 78.9586 17.4929 79.6479 16.7642C80.3373 16.0157 81.135 15.4347 82.041 15.0211C82.9471 14.5877 83.9319 14.3711 84.9955 14.3711C86.0591 14.3711 87.0439 14.5877 87.9499 15.0211C88.8559 15.4347 89.6438 16.0157 90.3134 16.7642C91.0028 17.4929 91.5346 18.3399 91.9088 19.305C92.3027 20.2504 92.4997 21.2647 92.4997 22.348C92.4997 23.7859 92.1649 25.1055 91.4952 26.307C90.8452 27.5084 89.949 28.4735 88.8067 29.2023C87.684 29.9311 86.4136 30.2954 84.9955 30.2954ZM78.9684 22.4071C78.9684 23.6086 79.2343 24.7116 79.7661 25.7161C80.3176 26.7009 81.0464 27.4887 81.9524 28.0796C82.8584 28.6705 83.8629 28.966 84.9659 28.966C86.0689 28.966 87.0734 28.6705 87.9794 28.0796C88.9052 27.469 89.6339 26.6615 90.1657 25.657C90.7172 24.6525 90.9929 23.5397 90.9929 22.3185C90.9929 21.117 90.7172 20.014 90.1657 19.0095C89.6339 18.005 88.9052 17.2073 87.9794 16.6164C87.0734 16.0059 86.0787 15.7006 84.9955 15.7006C83.8925 15.7006 82.888 16.0059 81.9819 16.6164C81.0759 17.227 80.3472 18.0444 79.7957 19.0686C79.2442 20.0731 78.9684 21.186 78.9684 22.4071ZM95.9504 30C95.9504 29.4485 95.9996 28.8379 96.0981 28.1683C96.2163 27.4986 96.4428 26.8092 96.7776 26.1002C97.1125 25.3911 97.6049 24.7017 98.2548 24.0321C98.9245 23.3624 99.8108 22.7715 100.914 22.2594C101.465 21.9837 102.056 21.7079 102.686 21.4322C103.317 21.1367 103.898 20.8216 104.43 20.4867C104.981 20.1322 105.424 19.7186 105.759 19.2459C106.114 18.7535 106.291 18.1724 106.291 17.5028C106.291 16.971 106.133 16.449 105.818 15.9369C105.523 15.4248 105.06 15.0112 104.43 14.6961C103.799 14.3612 103.011 14.1938 102.066 14.1938C101.18 14.1938 100.402 14.3612 99.732 14.6961C99.0624 15.0112 98.5109 15.3657 98.0776 15.7597C97.6639 16.1536 97.3784 16.449 97.2208 16.646L96.2163 15.6415C96.2951 15.5627 96.4822 15.3756 96.7776 15.0801C97.0928 14.7847 97.5064 14.4696 98.0185 14.1347C98.5503 13.7802 99.1707 13.4749 99.8798 13.2189C100.589 12.9628 101.387 12.8348 102.273 12.8348C103.474 12.8348 104.489 13.0514 105.316 13.4848C106.143 13.9181 106.773 14.4794 107.207 15.1688C107.66 15.8581 107.886 16.5968 107.886 17.3846C107.886 18.2118 107.699 18.9209 107.325 19.5118C106.951 20.1027 106.478 20.6148 105.907 21.0481C105.355 21.4617 104.764 21.8162 104.134 22.1117C103.524 22.3874 102.962 22.6435 102.45 22.8798C101.17 23.4707 100.185 24.1207 99.4957 24.8298C98.8063 25.5191 98.3139 26.1986 98.0185 26.8683C97.723 27.538 97.5359 28.1289 97.4571 28.641H108.211V30H95.9504ZM111.712 9.02357L119.689 28.1092L127.666 9.02357H129.261L120.428 30H118.98L110.117 9.02357H111.712ZM132.916 11.1508V8.43269H134.393V11.1508H132.916ZM132.916 30V14.637H134.393V30H132.916ZM146.448 30.2954C145.011 30.2954 143.711 29.9311 142.549 29.2023C141.406 28.4735 140.5 27.4986 139.831 26.2774C139.181 25.0563 138.856 23.7169 138.856 22.2594C138.856 20.8216 139.181 19.5118 139.831 18.33C140.481 17.1285 141.377 16.1733 142.519 15.4642C143.661 14.7355 144.942 14.3711 146.36 14.3711C147.817 14.3711 149.107 14.7355 150.23 15.4642C151.372 16.1733 152.269 17.1285 152.919 18.33C153.569 19.5315 153.894 20.8413 153.894 22.2594C153.894 22.4958 153.884 22.7124 153.864 22.9094H140.392C140.471 24.0911 140.796 25.1547 141.367 26.1002C141.938 27.0259 142.667 27.7645 143.553 28.316C144.459 28.8478 145.444 29.1137 146.508 29.1137C147.571 29.1137 148.576 28.8379 149.521 28.2864C150.466 27.7349 151.126 27.0259 151.501 26.1592L152.8 26.5138C152.505 27.2425 152.032 27.8925 151.382 28.4637C150.752 29.0349 150.004 29.4879 149.137 29.8227C148.29 30.1379 147.394 30.2954 146.448 30.2954ZM140.333 21.7572H152.475C152.397 20.5557 152.072 19.4921 151.501 18.5664C150.949 17.621 150.23 16.8922 149.344 16.3801C148.457 15.8483 147.473 15.5824 146.389 15.5824C145.306 15.5824 144.321 15.8483 143.435 16.3801C142.549 16.9119 141.83 17.6505 141.278 18.5959C140.727 19.5216 140.412 20.5754 140.333 21.7572ZM177.096 14.637H178.573L171.926 30H170.626L167.228 21.9935L163.83 30H162.53L155.883 14.637H157.331L163.21 28.3751L166.371 20.8708L163.801 14.6665H165.13L167.228 19.7186L169.296 14.6665H170.655L168.085 20.8708L171.246 28.3751L177.096 14.637Z" fill="white"/>
</g>
<g id="Nigel Waldron" filter="url(#filter1_d)">
<path d="M37.9499 34.9003V45.4782H37.0727V33.2663H37.7951L46.309 44.0162V33.2663H47.1862V45.4782H46.3262L37.9499 34.9003ZM50.6337 34.5047V32.9223H51.4937V34.5047H50.6337ZM50.6337 45.4782V36.5342H51.4937V45.4782H50.6337ZM58.3226 45.6158C57.7149 45.6158 57.153 45.4897 56.637 45.2374C56.121 44.9851 55.6738 44.6411 55.2955 44.2054C54.9171 43.7697 54.6189 43.2766 54.4011 42.7262C54.1947 42.1758 54.0915 41.6082 54.0915 41.0234C54.0915 40.2093 54.2692 39.4525 54.6247 38.753C54.9801 38.0421 55.4675 37.4688 56.0866 37.033C56.7173 36.5973 57.4397 36.3794 58.2538 36.3794C59.0336 36.3794 59.7101 36.5858 60.2834 36.9986C60.8682 37.4 61.3613 37.893 61.7626 38.4778V36.5342H62.5538V45.6502C62.5538 46.4643 62.3589 47.1409 61.969 47.6798C61.5792 48.2187 61.0632 48.6258 60.421 48.901C59.7789 49.1762 59.0852 49.3138 58.3398 49.3138C57.2964 49.3138 56.465 49.1246 55.8458 48.7462C55.2381 48.3678 54.7451 47.869 54.3667 47.2498L54.9515 46.8542C55.3069 47.4619 55.7885 47.9034 56.3962 48.1786C57.004 48.4653 57.6518 48.6086 58.3398 48.6086C58.9476 48.6086 59.5037 48.4939 60.0082 48.2646C60.5242 48.0467 60.9313 47.7199 61.2294 47.2842C61.539 46.8485 61.6938 46.3038 61.6938 45.6502V43.6894C61.3384 44.2742 60.851 44.7443 60.2318 45.0998C59.6241 45.4438 58.9877 45.6158 58.3226 45.6158ZM58.529 44.8762C59.0336 44.8762 59.5152 44.7558 59.9738 44.515C60.444 44.2742 60.8338 43.9703 61.1434 43.6034C61.453 43.2365 61.6365 42.8581 61.6938 42.4682V39.527C61.5218 39.0684 61.2638 38.6613 60.9198 38.3058C60.5758 37.9504 60.1802 37.6694 59.733 37.463C59.2973 37.2566 58.8501 37.1534 58.3914 37.1534C57.669 37.1534 57.0498 37.3484 56.5338 37.7382C56.0293 38.1281 55.6394 38.6212 55.3643 39.2174C55.1005 39.8137 54.9687 40.4214 54.9687 41.0406C54.9687 41.7172 55.1235 42.3478 55.4331 42.9326C55.7541 43.5174 56.1841 43.9875 56.723 44.343C57.2734 44.6985 57.8754 44.8762 58.529 44.8762ZM69.5594 45.6502C68.7224 45.6502 67.9656 45.4381 67.289 45.0138C66.624 44.5895 66.0965 44.0219 65.7066 43.311C65.3283 42.6001 65.1391 41.8204 65.1391 40.9718C65.1391 40.1348 65.3283 39.3722 65.7066 38.6842C66.085 37.9848 66.6068 37.4286 67.2718 37.0158C67.9369 36.5916 68.6822 36.3794 69.5078 36.3794C70.3564 36.3794 71.1074 36.5916 71.761 37.0158C72.4261 37.4286 72.9478 37.9848 73.3262 38.6842C73.7046 39.3837 73.8938 40.1462 73.8938 40.9718C73.8938 41.1094 73.8881 41.2356 73.8766 41.3502H66.0334C66.0793 42.0382 66.2685 42.6574 66.601 43.2078C66.9336 43.7468 67.3578 44.1767 67.8738 44.4978C68.4013 44.8074 68.9746 44.9622 69.5938 44.9622C70.213 44.9622 70.7978 44.8017 71.3482 44.4806C71.8986 44.1595 72.2828 43.7468 72.5006 43.2422L73.2574 43.4486C73.0854 43.8729 72.8102 44.2513 72.4318 44.5838C72.0649 44.9163 71.6292 45.1801 71.1246 45.375C70.6316 45.5585 70.1098 45.6502 69.5594 45.6502ZM65.999 40.6794H73.0682C73.0224 39.98 72.8332 39.3608 72.5006 38.8218C72.1796 38.2714 71.761 37.8472 71.245 37.549C70.729 37.2394 70.1557 37.0846 69.525 37.0846C68.8944 37.0846 68.321 37.2394 67.805 37.549C67.289 37.8586 66.8705 38.2886 66.5494 38.839C66.2284 39.378 66.0449 39.9914 65.999 40.6794ZM76.3707 32.9223H77.2479V43.7066C77.2479 44.1194 77.3339 44.4061 77.5059 44.5666C77.6779 44.7157 77.9015 44.7902 78.1767 44.7902C78.3602 44.7902 78.5494 44.773 78.7443 44.7386C78.9393 44.7042 79.1113 44.6583 79.2603 44.601L79.4323 45.3062C79.2374 45.375 78.9966 45.4381 78.7099 45.4954C78.4233 45.5527 78.1767 45.5814 77.9703 45.5814C77.4887 45.5814 77.0989 45.4381 76.8007 45.1514C76.5141 44.8533 76.3707 44.4577 76.3707 43.9646V32.9223ZM90.0136 33.3523H90.8736L92.6968 37.7898L94.52 33.3523H95.38L93.23 38.495L95.7928 44.4462L100.471 33.2663H101.434L96.2056 45.4782H95.3972L92.714 39.2002L90.0136 45.4782H89.2052L83.9937 33.2663H84.9397L89.6352 44.4462L92.1636 38.495L90.0136 33.3523ZM101.902 42.8982C101.902 42.3708 102.057 41.9064 102.367 41.505C102.688 41.1037 103.129 40.7941 103.691 40.5762C104.265 40.3469 104.918 40.2322 105.652 40.2322C106.111 40.2322 106.587 40.2724 107.08 40.3526C107.584 40.4329 108.026 40.5418 108.404 40.6794V39.8366C108.404 39.011 108.163 38.3517 107.682 37.8586C107.2 37.3656 106.546 37.119 105.721 37.119C105.274 37.119 104.809 37.2108 104.328 37.3942C103.846 37.5777 103.353 37.8414 102.848 38.1854L102.487 37.5662C103.657 36.775 104.763 36.3794 105.807 36.3794C106.862 36.3794 107.699 36.6948 108.318 37.3254C108.949 37.9561 109.264 38.8161 109.264 39.9054V44.343C109.264 44.6182 109.39 44.7615 109.642 44.773V45.4782C109.425 45.5011 109.281 45.5069 109.212 45.4954C108.995 45.4725 108.823 45.3807 108.696 45.2202C108.582 45.0597 108.519 44.8934 108.507 44.7214V44.0162C108.094 44.5322 107.561 44.9335 106.908 45.2202C106.265 45.5069 105.589 45.6502 104.878 45.6502C104.316 45.6502 103.806 45.5298 103.347 45.289C102.9 45.0367 102.545 44.7042 102.281 44.2914C102.029 43.8786 101.902 43.4142 101.902 42.8982ZM108.06 43.6378C108.289 43.3512 108.404 43.0817 108.404 42.8294V41.3502C107.578 41.0292 106.69 40.8686 105.738 40.8686C104.832 40.8686 104.104 41.0521 103.554 41.419C103.003 41.7745 102.728 42.2504 102.728 42.8466C102.728 43.225 102.825 43.5748 103.02 43.8958C103.215 44.2169 103.485 44.4749 103.829 44.6698C104.184 44.8647 104.591 44.9622 105.05 44.9622C105.692 44.9622 106.283 44.8418 106.822 44.601C107.361 44.3487 107.773 44.0277 108.06 43.6378ZM112.465 32.9223H113.342V43.7066C113.342 44.1194 113.428 44.4061 113.6 44.5666C113.772 44.7157 113.996 44.7902 114.271 44.7902C114.455 44.7902 114.644 44.773 114.839 44.7386C115.034 44.7042 115.206 44.6583 115.355 44.601L115.527 45.3062C115.332 45.375 115.091 45.4381 114.804 45.4954C114.518 45.5527 114.271 45.5814 114.065 45.5814C113.583 45.5814 113.193 45.4381 112.895 45.1514C112.608 44.8533 112.465 44.4577 112.465 43.9646V32.9223ZM116.744 41.0234C116.744 40.1978 116.922 39.4353 117.277 38.7358C117.633 38.0249 118.12 37.4573 118.739 37.033C119.359 36.5973 120.064 36.3794 120.855 36.3794C121.635 36.3794 122.323 36.5858 122.919 36.9986C123.527 37.4114 124.003 37.9045 124.347 38.4778V32.9223H125.207V44.343C125.207 44.6182 125.327 44.7615 125.568 44.773V45.4782C125.384 45.5011 125.247 45.5069 125.155 45.4954C124.949 45.461 124.777 45.3635 124.639 45.203C124.501 45.0425 124.433 44.8705 124.433 44.687V43.6894C124.066 44.2857 123.573 44.7615 122.953 45.117C122.346 45.4725 121.709 45.6502 121.044 45.6502C120.414 45.6502 119.834 45.5241 119.307 45.2718C118.791 45.0081 118.338 44.6583 117.948 44.2226C117.57 43.7869 117.272 43.2938 117.054 42.7434C116.847 42.193 116.744 41.6197 116.744 41.0234ZM124.347 42.4682V39.527C124.186 39.0913 123.928 38.6957 123.573 38.3402C123.217 37.9733 122.816 37.6866 122.369 37.4802C121.921 37.2624 121.48 37.1534 121.044 37.1534C120.356 37.1534 119.754 37.3426 119.238 37.721C118.722 38.088 118.321 38.5696 118.034 39.1658C117.759 39.7621 117.621 40.387 117.621 41.0406C117.621 41.7172 117.782 42.3478 118.103 42.9326C118.424 43.5174 118.854 43.9875 119.393 44.343C119.932 44.6985 120.534 44.8762 121.199 44.8762C121.509 44.8762 121.835 44.8131 122.179 44.687C122.535 44.5609 122.867 44.3889 123.177 44.171C123.498 43.9417 123.762 43.6837 123.968 43.397C124.186 43.0989 124.312 42.7893 124.347 42.4682ZM132.693 37.3082C131.89 37.3312 131.185 37.572 130.577 38.0306C129.981 38.4778 129.562 39.097 129.321 39.8882V45.4782H128.461V36.5342H129.287V38.7358C129.597 38.1166 130.009 37.6064 130.525 37.205C131.041 36.8037 131.586 36.5744 132.159 36.517C132.274 36.517 132.372 36.517 132.452 36.517C132.544 36.5056 132.624 36.4998 132.693 36.4998V37.3082ZM138.253 45.6502C137.416 45.6502 136.665 45.4381 136 45.0138C135.346 44.5895 134.83 44.0277 134.452 43.3282C134.074 42.6288 133.884 41.8605 133.884 41.0234C133.884 40.3928 133.993 39.8022 134.211 39.2518C134.429 38.69 134.739 38.1969 135.14 37.7726C135.541 37.3369 136.006 36.9986 136.533 36.7578C137.061 36.5056 137.634 36.3794 138.253 36.3794C138.872 36.3794 139.446 36.5056 139.973 36.7578C140.501 36.9986 140.959 37.3369 141.349 37.7726C141.75 38.1969 142.06 38.69 142.278 39.2518C142.507 39.8022 142.622 40.3928 142.622 41.0234C142.622 41.8605 142.427 42.6288 142.037 43.3282C141.659 44.0277 141.137 44.5895 140.472 45.0138C139.818 45.4381 139.079 45.6502 138.253 45.6502ZM134.744 41.0578C134.744 41.7573 134.899 42.3994 135.209 42.9842C135.53 43.5576 135.954 44.0162 136.482 44.3602C137.009 44.7042 137.594 44.8762 138.236 44.8762C138.878 44.8762 139.463 44.7042 139.99 44.3602C140.529 44.0047 140.954 43.5346 141.263 42.9498C141.584 42.365 141.745 41.7172 141.745 41.0062C141.745 40.3068 141.584 39.6646 141.263 39.0798C140.954 38.495 140.529 38.0306 139.99 37.6866C139.463 37.3312 138.884 37.1534 138.253 37.1534C137.611 37.1534 137.026 37.3312 136.499 37.6866C135.971 38.0421 135.547 38.518 135.226 39.1142C134.905 39.699 134.744 40.3469 134.744 41.0578ZM152.508 45.4782H151.648V40.4902C151.648 39.3436 151.482 38.5065 151.15 37.979C150.817 37.4401 150.301 37.1706 149.602 37.1706C149.097 37.1706 148.604 37.291 148.122 37.5318C147.641 37.7726 147.217 38.1052 146.85 38.5294C146.483 38.9422 146.219 39.4124 146.058 39.9398V45.4782H145.198V36.5342H146.007V38.667C146.362 37.9905 146.89 37.4401 147.589 37.0158C148.3 36.5916 149.051 36.3794 149.842 36.3794C150.817 36.3794 151.505 36.7234 151.906 37.4114C152.308 38.0994 152.508 39.0741 152.508 40.3354V45.4782Z" fill="#B64941"/>
</g>
</g>
</g>
<defs>
<filter id="filter0_d" x="10.4023" y="8.43269" width="171.392" height="28.3047" filterUnits="userSpaceOnUse" color-interpolation-filters="sRGB">
<feFlood flood-opacity="0" result="BackgroundImageFix"/>
<feColorMatrix in="SourceAlpha" type="matrix" values="0 0 0 0 0 0 0 0 0 0 0 0 0 0 0 0 0 0 127 0"/>
<feOffset dy="3.22096"/>
<feGaussianBlur stdDeviation="1.61048"/>
<feColorMatrix type="matrix" values="0 0 0 0 0 0 0 0 0 0 0 0 0 0 0 0 0 0 0.1 0"/>
<feBlend mode="normal" in2="BackgroundImageFix" result="effect1_dropShadow"/>
<feBlend mode="normal" in="SourceGraphic" in2="effect1_dropShadow" result="shape"/>
</filter>
<filter id="filter1_d" x="33.8517" y="32.9223" width="121.878" height="22.8335" filterUnits="userSpaceOnUse" color-interpolation-filters="sRGB">
<feFlood flood-opacity="0" result="BackgroundImageFix"/>
<feColorMatrix in="SourceAlpha" type="matrix" values="0 0 0 0 0 0 0 0 0 0 0 0 0 0 0 0 0 0 127 0"/>
<feOffset dy="3.22096"/>
<feGaussianBlur stdDeviation="1.61048"/>
<feColorMatrix type="matrix" values="0 0 0 0 0 0 0 0 0 0 0 0 0 0 0 0 0 0 0.1 0"/>
<feBlend mode="normal" in2="BackgroundImageFix" result="effect1_dropShadow"/>
<feBlend mode="normal" in="SourceGraphic" in2="effect1_dropShadow" result="shape"/>
</filter>
</defs>
</svg>
